<svg version="1.1" id="Layer_1" xmlns="http://www.w3.org/2000/svg" xmlns:xlink="http://www.w3.org/1999/xlink" x="0px" y="0px"
	 width="100%" viewBox="0 0 496 496" enable-background="new 0 0 496 496" xml:space="preserve">
<path fill="#000000" opacity="1.000000" stroke="none" 
	d="
M197.067627,246.788010 
	C195.034760,250.376724 192.721588,253.342911 191.886810,257.178314 
	C191.293289,259.905396 188.754852,258.911652 186.634262,258.974609 
	C182.682999,270.681366 173.668411,278.657196 165.142776,286.846558 
	C158.211105,293.504761 153.567673,301.351807 150.128189,310.126526 
	C148.124268,315.238892 146.331039,320.450714 143.512482,325.203949 
	C139.821686,331.428162 134.647980,335.616089 127.233063,336.221558 
	C108.195168,337.776001 90.610397,335.170898 77.629822,318.992676 
	C74.650978,315.279999 71.030106,312.031982 66.738602,309.710724 
	C65.633263,310.894318 66.339447,312.079834 66.302277,313.159485 
	C66.173454,316.901978 64.645393,317.391968 61.503880,315.697540 
	C57.095982,313.320068 54.061092,309.151978 50.048698,306.664978 
	C47.512924,307.745728 47.202999,311.759705 44.380573,310.657104 
	C41.512516,309.536652 41.925133,306.220917 41.729618,303.631775 
	C41.404060,299.320496 41.429749,294.978760 40.999756,290.680634 
	C40.668938,287.373749 38.138130,284.866730 38.449883,280.968353 
	C39.088879,272.977875 40.967842,265.574707 45.041828,258.725159 
	C51.609695,247.682693 53.214931,235.219009 52.321117,223.067215 
	C51.726471,214.982788 47.436134,206.955322 40.047043,201.600067 
	C35.987919,198.658203 33.095253,200.340729 29.951492,203.015762 
	C28.359976,204.369995 26.416536,207.829910 24.367910,205.321609 
	C21.850090,202.238800 15.566039,200.848572 18.195236,194.752899 
	C19.244820,192.319489 20.310282,189.819870 21.838114,187.686737 
	C23.306364,185.636765 24.998894,184.188736 23.653046,181.155121 
	C22.612803,178.810379 24.807701,177.709000 26.780357,178.106323 
	C30.523539,178.860214 34.504417,178.115128 38.060352,179.927368 
	C38.208313,180.002762 38.371666,180.119461 38.521183,180.110123 
	C48.670513,179.476791 59.144287,180.071884 68.422401,175.141174 
	C72.891342,172.766251 77.493668,170.172821 81.031784,166.264267 
	C81.440842,165.812408 82.240494,165.385849 82.802086,165.449585 
	C91.208870,166.403564 98.834915,161.265610 107.269615,162.380249 
	C110.343803,162.786499 112.333015,160.759613 113.671494,158.399200 
	C115.553459,155.080353 117.167923,151.597672 118.718391,148.105835 
	C121.070114,142.809509 125.172859,139.322708 130.083328,136.588028 
	C131.460693,135.820953 132.878311,135.287994 134.246094,136.440933 
	C135.509094,137.505554 134.917007,138.867950 134.572464,140.151230 
	C134.399780,140.794479 134.279877,141.452087 134.101410,142.093552 
	C132.039017,149.506821 132.037064,149.515930 139.415573,149.662842 
	C141.101654,149.696411 142.946884,149.550598 143.755478,151.395172 
	C145.022202,154.284851 141.944824,155.745911 141.028946,158.768402 
	C148.328812,159.336655 153.470596,164.936859 160.619720,166.142502 
	C167.122467,167.239120 179.901230,161.979034 183.009216,156.193878 
	C183.779816,154.759476 184.971252,153.188507 186.409683,154.049896 
	C190.466293,156.479141 194.554413,154.362930 198.587616,154.707886 
	C200.400543,154.862930 202.238724,155.014206 203.995789,155.448853 
	C205.747330,155.882141 207.745468,156.397049 208.129150,158.556671 
	C208.527527,160.798889 206.748016,161.864792 205.129593,162.681610 
	C201.379196,164.574463 198.568222,166.984680 198.127457,171.567947 
	C197.917892,173.747131 195.953842,174.610519 193.984802,174.191071 
	C189.076920,173.145645 186.199936,176.044189 183.320862,179.185089 
	C175.814590,187.374008 174.681610,199.131683 180.504013,208.182327 
	C181.298584,209.417465 182.499222,209.901596 183.679855,210.471756 
	C192.313156,214.641052 198.133896,221.502563 202.216766,229.965714 
	C203.871536,233.395798 204.229507,236.523956 198.886459,237.071869 
	C199.457230,240.494186 197.681488,243.319778 197.067627,246.788010 
M150.749100,235.191895 
	C147.755646,239.786880 143.488556,241.366577 138.220825,240.334549 
	C132.452942,239.204529 126.974220,237.278244 122.114395,233.876770 
	C119.277168,231.890930 117.452744,229.213303 116.697784,225.778473 
	C115.607338,220.817383 114.457268,220.177490 109.930016,222.360489 
	C102.085007,226.143311 94.795799,230.759796 88.593437,236.990433 
	C87.304634,238.285080 86.313728,240.358444 82.417801,239.949875 
	C88.357796,234.040329 93.625534,228.799576 98.806747,223.644928 
	C96.665054,220.502823 94.118980,220.626312 91.086517,220.583817 
	C86.332184,220.517212 80.159950,223.080322 77.107697,218.037720 
	C71.606026,208.948410 62.357830,209.222244 53.913185,206.631195 
	C52.695095,209.867523 53.806259,212.943634 55.548737,214.303665 
	C59.992931,217.772400 58.949924,221.849411 58.351795,226.235901 
	C56.627136,238.883987 56.327053,251.849136 48.494022,262.919739 
	C47.006783,265.021667 45.505909,267.778473 46.829189,270.769165 
	C49.022705,270.798676 50.137035,267.707428 52.827969,268.973419 
	C51.557404,273.561066 48.986595,277.550232 48.181133,282.201233 
	C47.631989,285.372192 47.513153,288.120209 50.308254,290.288696 
	C51.879074,291.507355 52.409019,293.157990 52.358017,295.128326 
	C52.286335,297.897583 53.493736,300.337952 54.853619,302.621490 
	C55.832878,304.265930 57.747555,305.869476 59.308311,304.021027 
	C62.700974,300.002960 65.627014,302.478882 68.475433,304.254517 
	C74.029709,307.716919 78.566978,312.456879 83.089699,317.097382 
	C86.214073,320.303131 89.373711,320.582306 92.875656,318.580383 
	C96.161217,316.702118 94.604065,313.639465 94.156891,310.953094 
	C93.274193,305.650360 93.141815,300.288818 94.077965,295.044373 
	C95.896095,284.858917 102.539795,279.160797 111.944855,275.386414 
	C124.309364,270.424377 136.484146,264.815186 144.851425,253.633057 
	C145.984909,252.118195 147.516815,251.554138 149.232269,252.578049 
	C150.871078,253.556168 152.660904,253.716599 154.464645,254.055664 
	C159.921707,255.081482 162.127518,257.525146 162.223602,263.074677 
	C162.282211,266.458466 163.928802,268.936432 166.856384,269.215118 
	C170.164093,269.530029 172.928406,267.569794 173.568344,263.829132 
	C173.956161,261.562164 173.731873,259.155609 175.359634,256.913574 
	C179.380920,259.766937 181.066147,257.793427 181.532639,253.739929 
	C181.709869,252.200043 181.837357,250.721039 183.550705,250.069931 
	C187.625778,248.521332 187.130173,245.515656 186.198990,242.217651 
	C185.676910,240.368591 183.726059,238.330750 185.187454,236.598724 
	C187.902618,233.380722 188.336823,230.109085 188.842300,225.944061 
	C189.374557,221.558319 187.839432,219.973938 185.390900,217.806732 
	C181.584732,214.437866 176.415359,213.903320 171.574371,211.488800 
	C176.108475,208.913269 174.295792,206.170685 172.509140,202.873947 
	C170.021820,205.268448 166.728210,206.381409 165.502548,209.433151 
	C164.055817,213.035355 168.779907,214.353180 169.373428,217.894852 
	C166.406113,217.369629 163.818588,216.928253 161.237701,216.451004 
	C157.118912,215.689331 154.837616,216.815369 155.284058,221.573105 
	C155.738083,226.411713 154.219696,230.778259 150.749100,235.191895 
M90.859459,192.482529 
	C89.211121,200.472702 91.009773,207.687698 95.932518,214.102539 
	C101.282478,221.074081 114.187309,220.393784 119.074051,212.961975 
	C125.573387,203.077744 122.270638,186.867706 112.430328,180.354355 
	C106.508408,176.434586 99.434685,177.563004 95.059113,183.174301 
	C93.090218,185.699219 91.654022,188.499756 90.859459,192.482529 
M125.884247,218.148865 
	C119.288986,222.371048 119.119041,227.297821 125.466454,231.704025 
	C129.207230,234.300781 133.503479,235.531265 137.851562,236.694977 
	C142.388107,237.909103 145.649628,236.335190 147.978134,232.522446 
	C149.183029,230.549530 150.377869,228.514328 151.174500,226.358444 
	C153.882202,219.030655 151.549377,215.750488 143.758331,215.365250 
	C137.858948,215.073547 132.274307,216.709808 125.884247,218.148865 
M159.609863,205.143051 
	C159.580154,196.384659 157.357651,188.360245 151.447113,181.678726 
	C149.283401,179.232758 146.489548,176.984238 143.187912,178.916031 
	C140.007385,180.776932 138.578598,183.972519 139.928741,188.116028 
	C143.819626,187.778030 147.019241,188.861176 148.566528,192.595703 
	C150.550156,197.383408 151.629990,202.174301 147.494385,206.550217 
	C145.559937,208.597046 145.629013,210.452469 148.419464,211.585663 
	C153.858612,213.794449 157.974274,211.675613 159.609863,205.143051 
M101.747986,321.739563 
	C105.952919,325.795746 111.022919,326.540314 116.510139,325.513580 
	C119.998367,324.860870 122.069115,322.522339 122.786751,319.226685 
	C123.460258,316.133667 122.595108,313.379486 120.051353,311.649231 
	C117.794052,311.644073 118.391907,314.369446 116.619522,314.415100 
	C115.067490,312.891602 113.577927,311.354126 112.007210,309.904602 
	C109.427277,307.523804 106.843834,306.870941 103.564384,309.056915 
	C97.753204,312.930481 97.383560,314.168793 101.747986,321.739563 
M138.486710,280.257080 
	C146.112228,279.133636 151.551270,272.648987 153.195786,262.435852 
	C144.198822,258.085754 146.443161,268.450226 142.348022,271.145508 
	C142.267227,267.936951 143.203979,265.193665 142.208008,262.007263 
	C139.892044,263.839935 137.702209,265.298187 135.845764,267.099945 
	C132.153488,270.683380 133.352142,278.467499 138.486710,280.257080 
z"/>
<path fill="#000000" opacity="1.000000" stroke="none" 
	d="
M265.000000,291.703491 
	C312.319153,291.040680 359.139099,290.390991 405.963959,290.678162 
	C410.503784,290.705963 412.148499,289.243225 412.126221,284.665863 
	C411.990814,256.836212 411.949493,229.004791 412.150635,201.175949 
	C412.188080,195.994034 409.919647,195.241699 405.512695,195.244110 
	C340.353058,195.279709 275.193359,195.190674 210.033707,195.103027 
	C206.497482,195.098267 202.785461,195.403137 199.607513,191.908737 
	C202.436203,190.552017 204.939346,190.813126 207.334442,190.810501 
	C271.160950,190.740356 334.987457,190.706345 398.813995,190.665329 
	C401.480408,190.663620 404.150726,190.559906 406.812103,190.672607 
	C409.552734,190.788696 411.784729,190.449646 412.299225,187.109116 
	C412.524292,185.647919 413.543823,184.789856 415.160095,184.941315 
	C416.609467,185.077133 417.347931,186.113235 417.182220,187.319946 
	C416.688354,190.916199 421.180084,189.986572 421.710022,192.512787 
	C422.440460,195.995300 417.362610,194.780014 417.402802,197.766571 
	C417.418457,198.930359 417.286530,200.095642 417.286316,201.260239 
	C417.280853,228.924332 417.289307,256.588409 417.278015,284.252502 
	C417.276917,286.942047 416.984253,289.596680 420.497192,290.645874 
	C421.961792,291.083313 422.170837,293.804230 421.481323,293.843292 
	C415.957062,294.156097 419.386047,302.338470 413.893127,302.224548 
	C412.528503,302.196259 412.078674,300.764923 412.127533,299.572235 
	C412.317474,294.932953 409.165039,295.233368 406.053925,295.265778 
	C374.564209,295.593842 343.073700,295.853912 311.584473,296.222412 
	C283.926666,296.546082 256.263611,295.821991 228.605881,296.734131 
	C224.691559,296.863190 220.463257,296.910187 216.344635,294.535980 
	C218.693649,291.543915 221.487762,291.870209 224.006088,291.849274 
	C237.503525,291.737000 251.001923,291.740906 265.000000,291.703491 
z"/>
<path fill="#000000" opacity="1.000000" stroke="none" 
	d="
M311.020081,276.432861 
	C308.793884,275.057190 307.681549,276.825897 306.384369,277.628571 
	C300.079987,281.529480 293.119019,282.298584 286.143890,280.993683 
	C272.051788,278.357452 266.640259,262.537598 276.020844,251.085907 
	C278.932526,247.531342 279.630341,245.330261 276.702637,241.458328 
	C273.310455,236.972168 272.341644,231.456619 273.394836,225.787949 
	C274.845215,217.981400 279.018158,214.695541 287.410583,214.669449 
	C294.657196,214.646912 299.797668,218.819412 301.253815,225.805603 
	C302.678558,232.641220 300.934723,238.641434 296.635468,244.004532 
	C295.612244,245.280930 294.552124,246.527725 293.703491,247.553116 
	C299.096344,252.786224 304.261780,257.798645 309.537598,262.918182 
	C311.513031,261.353912 311.700348,258.732605 311.691376,256.048248 
	C311.683411,253.672623 312.102264,251.529526 315.124054,251.691010 
	C318.092407,251.849625 318.223999,254.134232 318.312561,256.406464 
	C318.447571,259.868439 317.230072,262.972931 315.676849,265.918518 
	C314.504578,268.141663 314.450592,269.859070 316.457062,271.629883 
	C318.290161,273.247681 319.763794,275.189972 317.482147,277.577667 
	C315.019745,280.154510 313.066132,278.805878 311.020081,276.432861 
M281.194031,272.327881 
	C287.402985,277.358795 294.264801,276.375641 301.061371,274.158386 
	C303.974152,273.208191 304.823334,270.905121 302.441528,268.329834 
	C297.808075,263.320007 293.088715,258.389130 288.491150,253.346939 
	C286.429932,251.086411 284.652893,251.446793 282.516266,253.262390 
	C276.355988,258.497040 275.694672,264.632111 281.194031,272.327881 
M286.148743,220.687317 
	C280.062256,223.451050 278.062317,229.517944 281.120911,235.939575 
	C284.619446,243.284958 288.345947,243.616501 293.255615,237.131317 
	C296.035248,233.459732 296.531860,229.548157 294.708832,225.428314 
	C293.246185,222.122925 290.730194,220.157928 286.148743,220.687317 
z"/>
<path fill="#000000" opacity="1.000000" stroke="none" 
	d="
M397.069580,267.963135 
	C397.061829,266.449097 397.061829,265.291138 397.061829,264.133148 
	C396.128204,264.960388 394.432861,265.319061 395.044952,266.789642 
	C395.895630,268.833405 396.509186,270.628815 393.823242,271.671051 
	C391.302399,272.649261 388.878021,272.465088 386.855652,270.568756 
	C384.045624,267.933777 383.869568,260.946228 386.438721,258.064789 
	C389.085510,255.096283 391.709686,255.497101 396.675537,259.785339 
	C397.096497,258.075165 397.350983,256.441925 397.908936,254.919861 
	C398.681183,252.813019 400.550964,252.354218 402.421814,252.914429 
	C404.955750,253.673218 403.360504,255.163528 403.117676,256.763672 
	C402.560791,260.433807 402.988831,264.224884 402.150757,267.925323 
	C401.820923,269.381836 402.056610,271.032257 400.024506,271.325012 
	C397.709076,271.658569 397.180237,270.184387 397.069580,267.963135 
z"/>
<path fill="#000000" opacity="1.000000" stroke="none" 
	d="
M356.629730,268.234711 
	C354.357056,265.714813 355.150726,268.733154 354.916107,269.062866 
	C352.032745,273.114471 347.252106,273.143188 344.689301,269.033112 
	C345.434662,266.785767 347.903625,269.184479 348.872284,267.498383 
	C348.784058,265.845337 347.273254,265.484589 346.358856,264.606812 
	C344.120972,262.458557 343.405975,260.151733 345.821869,257.694550 
	C347.913788,255.566879 352.642334,255.661575 354.515839,257.721710 
	C355.005127,258.259705 355.341095,258.775604 355.083557,259.478882 
	C354.386108,261.383362 352.622772,260.397583 351.104828,260.432220 
	C352.020050,262.114685 353.226410,262.576202 354.818634,263.032959 
	C356.716309,259.279236 358.400024,254.848572 364.084869,256.459503 
	C365.291382,256.801422 365.949646,257.748901 365.825531,259.924225 
	C361.179749,259.174316 357.272583,260.185150 358.582275,266.055634 
	C359.612305,270.672638 362.943604,267.851990 365.357941,267.518311 
	C366.844727,269.723297 365.729797,270.723206 363.900879,271.301086 
	C360.789642,272.284088 358.342560,271.426697 356.629730,268.234711 
z"/>
<path fill="#000000" opacity="1.000000" stroke="none" 
	d="
M328.395020,258.473602 
	C329.265198,260.040070 329.594391,261.642181 331.392151,262.094696 
	C334.398712,260.375519 333.540741,255.747574 337.769379,254.163483 
	C338.312500,259.764160 338.522369,264.983368 336.792725,270.896606 
	C334.932526,267.895294 335.717804,265.190887 335.189270,262.164032 
	C333.761749,264.833984 332.558258,267.084961 331.398285,269.254486 
	C328.376221,268.575867 329.005005,265.398712 326.985840,264.386688 
	C325.550995,266.348602 327.548065,269.460480 324.831543,271.023987 
	C322.109406,270.432709 322.812408,268.242310 322.769684,266.612640 
	C322.691376,263.625427 322.823853,260.627716 322.989624,257.641113 
	C323.076111,256.082245 322.619202,253.962402 324.991089,253.720993 
	C327.004791,253.516006 327.085754,255.467026 327.645477,256.787567 
	C327.840027,257.246613 328.055145,257.696930 328.395020,258.473602 
z"/>
<path fill="#000000" opacity="1.000000" stroke="none" 
	d="
M218.360413,227.293671 
	C219.113708,228.320999 219.128952,229.568405 220.421661,229.764252 
	C221.985550,228.643204 222.278366,226.697205 223.283310,225.209213 
	C224.151306,223.923981 224.305252,221.976212 226.980087,221.579559 
	C227.345062,226.984055 227.787262,232.197495 226.245361,237.980637 
	C223.557098,235.380280 225.374268,232.594040 224.191818,230.235336 
	C222.291351,231.937469 222.239044,234.880051 220.043991,236.176727 
	C217.426346,235.429337 218.331924,232.224884 216.117569,231.121841 
	C215.198654,233.329407 216.860352,236.175674 213.527740,238.651093 
	C210.402863,232.364563 213.514832,226.540726 212.873260,220.412567 
	C217.438629,221.253906 216.610184,225.018356 218.360413,227.293671 
z"/>
<path fill="#000000" opacity="1.000000" stroke="none" 
	d="
M367.706177,254.282578 
	C368.815582,252.579391 369.921753,252.446121 371.142975,253.633759 
	C371.729279,254.203934 372.222260,255.111633 372.908813,255.292572 
	C375.120361,255.875458 377.619690,255.745697 378.567230,258.553101 
	C379.722351,261.975555 379.273682,265.467712 379.083588,268.939575 
	C379.014191,270.206940 378.257782,271.140045 376.808411,271.060516 
	C375.330750,270.979340 375.008850,269.918518 374.809296,268.669830 
	C374.370636,265.924469 375.692749,262.806580 373.413605,260.038910 
	C370.032166,262.264496 372.000244,265.173248 371.521149,267.526764 
	C371.224762,268.982788 372.108368,271.334534 369.380615,271.124268 
	C367.261871,270.960999 367.629120,269.052673 367.618622,267.602356 
	C367.587311,263.279663 367.597900,258.956665 367.706177,254.282578 
z"/>
<path fill="#000000" opacity="1.000000" stroke="none" 
	d="
M249.105286,223.638489 
	C251.563507,226.692001 251.563507,226.692001 247.545197,227.519928 
	C250.575302,230.364609 254.016312,233.483505 250.026215,237.362534 
	C247.304825,240.008148 243.811066,239.943024 241.144394,236.739029 
	C241.607285,233.948807 244.279114,235.987350 245.353516,234.136520 
	C244.221848,231.352081 238.514069,230.022522 241.609833,225.499100 
	C243.286682,223.048904 245.966156,222.712234 249.105286,223.638489 
z"/>
<path fill="#000000" opacity="1.000000" stroke="none" 
	d="
M231.307251,232.372360 
	C231.533188,234.445557 232.152115,235.829590 234.139755,235.340576 
	C235.714157,234.953232 235.648422,233.399933 235.926788,232.096954 
	C236.498703,229.419876 234.508636,226.105591 237.724655,223.948547 
	C239.872314,226.359970 240.878403,235.356964 239.366501,237.465790 
	C237.770874,239.691422 230.221130,238.949707 229.281540,236.207779 
	C227.964828,232.365417 227.828339,228.354340 229.824860,223.554016 
	C232.005524,226.794968 230.966049,229.497162 231.307251,232.372360 
z"/>
<path fill="#000000" opacity="1.000000" stroke="none" 
	d="
M260.565552,234.721039 
	C262.899475,238.099228 264.728668,233.604599 267.106812,234.869339 
	C268.040405,237.433731 266.297760,238.356674 264.212738,238.602646 
	C260.780060,239.007614 258.517151,237.362030 257.516541,234.021927 
	C256.359222,230.158691 256.866699,226.512741 260.351013,224.316360 
	C262.475159,222.977371 265.296509,222.911621 267.795441,226.688995 
	C260.796783,225.886810 258.923004,228.869644 260.565552,234.721039 
z"/>
<path fill="#000000" opacity="1.000000" stroke="none" 
	d="
M255.918030,228.389954 
	C255.750793,231.822281 256.249481,234.980194 253.330582,239.055664 
	C252.189163,232.235916 252.733246,226.772797 253.133347,221.335037 
	C253.159576,220.978729 254.126984,220.460831 254.682663,220.425262 
	C255.658737,220.362793 256.133484,221.122696 256.117279,222.047394 
	C256.082764,224.021362 255.977020,225.994110 255.918030,228.389954 
z"/>
<path fill="#000000" opacity="1.000000" stroke="none" 
	d="
M380.661743,267.477234 
	C380.678070,263.406769 380.669037,259.774902 380.729126,256.144226 
	C380.750824,254.833725 380.740234,253.218689 382.698120,253.476120 
	C384.257172,253.681091 384.138184,254.989304 383.882690,256.193359 
	C382.848755,261.065796 384.234589,266.223114 382.643677,271.101013 
	C380.131805,270.689484 380.915833,269.051819 380.661743,267.477234 
z"/>
<path fill="#000000" opacity="1.000000" stroke="none" 
	d="
M339.710693,255.326187 
	C340.550354,252.725693 342.933136,252.477051 342.714172,254.535019 
	C342.132141,260.005035 343.190918,265.622589 341.116180,271.032135 
	C338.479218,266.136627 340.313507,260.792389 339.710693,255.326187 
z"/>
<path fill="#000000" opacity="1.000000" stroke="none" 
	d="
M118.907097,198.650314 
	C119.123726,199.704941 119.271347,200.361923 119.276077,201.019913 
	C119.315109,206.448364 117.018562,210.682327 113.585503,210.866806 
	C109.605003,211.080688 107.766808,208.286179 106.605499,204.945801 
	C104.861511,199.929413 106.185799,194.165451 109.482018,192.308334 
	C113.260406,190.179550 116.538658,192.277390 118.907097,198.650314 
M110.953415,196.081711 
	C109.200928,197.245178 109.110016,198.686066 110.490768,200.120453 
	C111.275009,200.935150 112.389633,200.824005 112.968658,199.826767 
	C113.989677,198.068283 113.376686,196.753723 110.953415,196.081711 
z"/>
</svg>